<svg width="42" height="42" viewBox="0 0 42 42" fill="none" xmlns="http://www.w3.org/2000/svg">
<circle cx="21" cy="21" r="20" stroke="#232F6B" stroke-width="2"/>
<path d="M17.6667 21.5C20.4217 21.5 22.5 19.4217 22.5 16.6667C22.5 13.9117 20.4217 11.8333 17.6667 11.8333C14.9117 11.8333 12.8334 13.9117 12.8334 16.6667C12.8334 19.4217 14.9117 21.5 17.6667 21.5ZM17.6667 14.25C19.0901 14.25 20.0834 15.2433 20.0834 16.6667C20.0834 18.0901 19.0901 19.0833 17.6667 19.0833C16.2433 19.0833 15.25 18.0901 15.25 16.6667C15.25 15.2433 16.2433 14.25 17.6667 14.25ZM18.875 22.7083H16.4584C13.127 22.7083 10.4167 25.4186 10.4167 28.75V29.9583H12.8334V28.75C12.8334 26.7514 14.4598 25.125 16.4584 25.125H18.875C20.8736 25.125 22.5 26.7514 22.5 28.75V29.9583H24.9167V28.75C24.9167 25.4186 22.2064 22.7083 18.875 22.7083ZM30.1899 10.1852L28.4813 11.8938C30.0775 13.4924 30.9584 15.6166 30.9584 17.875C30.9584 20.1334 30.0775 22.2576 28.4813 23.8563L30.1899 25.5648C32.244 23.5095 33.375 20.7786 33.375 17.875C33.375 14.9714 32.244 12.2406 30.1899 10.1852Z" fill="#232F6B"/>
<path d="M26.7714 13.6023L25.0629 15.3133C25.748 15.996 26.125 16.9059 26.125 17.875C26.125 18.844 25.748 19.7539 25.0629 20.4366L26.7714 22.1476C27.9121 21.007 28.5417 19.4905 28.5417 17.875C28.5417 16.2594 27.9121 14.743 26.7714 13.6023Z" fill="#F8FAFF"/>
</svg>
